<?xml version="1.0" encoding="UTF-8"?>
<svg width="15px" height="26px" viewBox="0 0 15 26" version="1.1" xmlns="http://www.w3.org/2000/svg" xmlns:xlink="http://www.w3.org/1999/xlink">
    <!-- Generator: Sketch 42 (36781) - http://www.bohemiancoding.com/sketch -->
    <title>ico_phone_white</title>
    <desc>Created with Sketch.</desc>
    <defs></defs>
    <g id="Page-1" stroke="none" stroke-width="1" fill="none" fill-rule="evenodd">
        <g id="contact" transform="translate(-611.000000, -172.000000)" fill="#FFFFFF">
            <path d="M622.4,196.776471 L614.6,196.776471 C613.2746,196.776471 612.2,195.6808 612.2,194.329412 L612.2,192.188235 L624.8,192.188235 L624.8,194.329412 C624.8,195.6808 623.7254,196.776471 622.4,196.776471 M614.6,173.223529 L622.4,173.223529 C623.7254,173.223529 624.8,174.3192 624.8,175.670588 L624.8,190.964706 L612.2,190.964706 L612.2,175.670588 C612.2,174.3192 613.2746,173.223529 614.6,173.223529 M622.4,172 L614.6,172 C612.6119,172 611,173.643506 611,175.670588 L611,194.329412 C611,196.3568 612.6119,198 614.6,198 L622.4,198 C624.3881,198 626,196.3568 626,194.329412 L626,175.670588 C626,173.643506 624.3881,172 622.4,172 M620,194.023529 L617,194.023529 C616.6688,194.023529 616.4,194.2976 616.4,194.635294 C616.4,194.972988 616.6688,195.247059 617,195.247059 L620,195.247059 C620.3312,195.247059 620.6,194.972988 620.6,194.635294 C620.6,194.2976 620.3312,194.023529 620,194.023529" id="ico_phone_white"></path>
        </g>
    </g>
</svg>