<?xml version="1.0" encoding="UTF-8"?>
<svg width="26px" height="20px" viewBox="0 0 26 20" version="1.1" xmlns="http://www.w3.org/2000/svg" xmlns:xlink="http://www.w3.org/1999/xlink">
    <!-- Generator: Sketch 42 (36781) - http://www.bohemiancoding.com/sketch -->
    <title>ico_mail_black</title>
    <desc>Created with Sketch.</desc>
    <defs></defs>
    <g id="Page-1" stroke="none" stroke-width="1" fill="none" fill-rule="evenodd">
        <g id="m_contact" transform="translate(-174.000000, -457.000000)" fill="#303135">
            <g id="Group-3" transform="translate(91.000000, 457.000000)">
                <g id="Group-2" transform="translate(83.000000, 0.000000)">
                    <path d="M23.4841827,18.9140321 L2.51576728,18.9140321 C1.74836536,18.9140321 1.12403366,18.3050755 1.12403366,17.5565721 L1.12403366,17.069244 L8.95949395,9.7509061 L12.6737526,12.3710752 C12.771174,12.4397627 12.8855745,12.4742422 12.999975,12.4742422 C13.1143755,12.4742422 13.228776,12.4397627 13.3261974,12.3710752 L17.0404561,9.7509061 L24.8759163,17.069244 L24.8759163,17.5565721 C24.8759163,18.3050755 24.2515846,18.9140321 23.4841827,18.9140321 L23.4841827,18.9140321 Z M1.12403366,4.22278632 L8.04261984,9.10394071 L1.12403366,15.5659929 L1.12403366,4.22278632 Z M2.51576728,1.08623943 L23.4841827,1.08623943 C24.2515846,1.08623943 24.8759163,1.69519595 24.8759163,2.44369935 L24.8759163,2.88270189 L12.999975,11.261216 L1.12403366,2.88270189 L1.12403366,2.44369935 C1.12403366,1.69519595 1.74836536,1.08623943 2.51576728,1.08623943 L2.51576728,1.08623943 Z M24.8759163,15.5659929 L17.9573302,9.10394071 L24.8759163,4.22278632 L24.8759163,15.5659929 Z M25.9893032,16.7418247 L25.9893032,3.25518889 C26.0029422,3.18731589 26.0029422,3.11727096 25.9893032,3.048312 L25.9893032,2.44342786 C25.9893032,1.09601314 24.8656175,-1.10134124e-13 23.4841827,-1.10134124e-13 L2.51576728,-1.10134124e-13 C1.13433249,-1.10134124e-13 0.0106467622,1.09601314 0.0106467622,2.44342786 L0.0106467622,3.048312 C-0.00299222729,3.11727096 -0.00299222729,3.18731589 0.0106467622,3.25518889 L0.0106467622,16.7418247 C-0.00354892074,16.8115981 -0.00354892074,16.8835435 0.0106467622,16.953317 L0.0106467622,17.5565721 C0.0106467622,18.9039869 1.13433249,20 2.51576728,20 L23.4841827,20 C24.8656175,20 25.9893032,18.9039869 25.9893032,17.5565721 L25.9893032,16.953317 C26.0034989,16.8835435 26.0034989,16.8115981 25.9893032,16.7418247 L25.9893032,16.7418247 Z" id="ico_mail_black"></path>
                </g>
            </g>
        </g>
    </g>
</svg>