<?xml version="1.0" encoding="UTF-8"?>
<svg width="15px" height="26px" viewBox="0 0 15 26" version="1.1" xmlns="http://www.w3.org/2000/svg" xmlns:xlink="http://www.w3.org/1999/xlink">
    <!-- Generator: Sketch 42 (36781) - http://www.bohemiancoding.com/sketch -->
    <title>ico_phone_black</title>
    <desc>Created with Sketch.</desc>
    <defs></defs>
    <g id="Page-1" stroke="none" stroke-width="1" fill="none" fill-rule="evenodd">
        <g id="m_contact" transform="translate(-180.000000, -334.000000)" fill="#303135">
            <g id="Group" transform="translate(129.000000, 334.000000)">
                <path d="M62.4,24.7764706 L54.6,24.7764706 C53.2746,24.7764706 52.2,23.6808 52.2,22.3294118 L52.2,20.1882353 L64.8,20.1882353 L64.8,22.3294118 C64.8,23.6808 63.7254,24.7764706 62.4,24.7764706 M54.6,1.22352941 L62.4,1.22352941 C63.7254,1.22352941 64.8,2.3192 64.8,3.67058824 L64.8,18.9647059 L52.2,18.9647059 L52.2,3.67058824 C52.2,2.3192 53.2746,1.22352941 54.6,1.22352941 M62.4,0 L54.6,0 C52.6119,0 51,1.64350588 51,3.67058824 L51,22.3294118 C51,24.3568 52.6119,26 54.6,26 L62.4,26 C64.3881,26 66,24.3568 66,22.3294118 L66,3.67058824 C66,1.64350588 64.3881,0 62.4,0 M60,22.0235294 L57,22.0235294 C56.6688,22.0235294 56.4,22.2976 56.4,22.6352941 C56.4,22.9729882 56.6688,23.2470588 57,23.2470588 L60,23.2470588 C60.3312,23.2470588 60.6,22.9729882 60.6,22.6352941 C60.6,22.2976 60.3312,22.0235294 60,22.0235294" id="ico_phone_black"></path>
            </g>
        </g>
    </g>
</svg>